<?xml version="1.0" encoding="utf-8"?><!-- Uploaded to: SVG Repo, www.svgrepo.com, Generator: SVG Repo Mixer Tools -->
<svg width="800px" height="800px" viewBox="0 0 400 400" fill="none" xmlns="http://www.w3.org/2000/svg">
<path d="M148.178 136.898C142.558 145.691 136.122 153.909 128.819 161.395C65.6708 226.13 68.2351 153.909 82.4676 116.096C85.9214 106.92 122.825 91.1277 133.808 91.1277C144.533 91.1277 167.663 107.501 177.861 127.873" stroke="#000000" stroke-opacity="0.9" stroke-width="16" stroke-linecap="round" stroke-linejoin="round"/>
<path d="M244.315 140.025C310.141 242.287 334.894 137.749 321.248 116.806C304.558 91.1901 228.366 72.956 213.284 121.569" stroke="#000000" stroke-opacity="0.9" stroke-width="16" stroke-linecap="round" stroke-linejoin="round"/>
<path d="M181.433 194.936C175.378 205.654 166.187 213.961 158.147 223.16C139.467 244.535 124.864 293.681 168.35 293.681C181.433 293.681 192.703 277.19 194.307 280.54C198.739 289.793 241.998 298.637 247.41 278.967C255.123 250.926 226.261 221.228 218.302 195.578" stroke="#000000" stroke-opacity="0.9" stroke-width="16" stroke-linecap="round" stroke-linejoin="round"/>
<path d="M187.156 270.943C179.165 251.442 177.215 244.309 199.916 244.309C224.011 244.309 201.528 260.636 193.69 274.692" stroke="#000000" stroke-opacity="0.9" stroke-width="16" stroke-linecap="round" stroke-linejoin="round"/>
<path d="M158.68 188.606C159.368 185.423 158.945 181.855 159.079 178.479" stroke="#000000" stroke-opacity="0.9" stroke-width="16" stroke-linecap="round" stroke-linejoin="round"/>
<path d="M241.179 192.404C242.388 190.088 241.023 185.582 241.254 182.277" stroke="#000000" stroke-opacity="0.9" stroke-width="16" stroke-linecap="round" stroke-linejoin="round"/>
<path d="M167.739 297.479C181.268 305.075 190.786 308.872 196.294 308.872C204.557 308.872 221.065 300.708 223.404 297.479" stroke="#000000" stroke-opacity="0.9" stroke-width="16" stroke-linecap="round" stroke-linejoin="round"/>
</svg>